name D:\school\WTK\thesis\model\3dpredictsim\Results\batch_windlass\Pog_s1_tmt_bCst_d05_k1000_WL10_ig24.mot
datacolumns 128
datarows 4
range 1.03107467 1.06200691
endheader
time	pelvis_tilt	pelvis_list	pelvis_rotation	pelvis_tx	pelvis_ty	pelvis_tz	hip_flexion_l	hip_adduction_l	hip_rotation_l	hip_flexion_r	hip_adduction_r	hip_rotation_r	knee_angle_l	knee_angle_r	ankle_angle_l	ankle_angle_r	subtalar_angle_l	subtalar_angle_r	tmt_angle_l	tmt_angle_r	mtp_angle_l	mtp_angle_r	lumbar_extension	lumbar_bending	lumbar_rotation	arm_flex_l	arm_add_l	arm_rot_l	arm_flex_r	arm_add_r	arm_rot_r	elbow_flex_l	elbow_flex_r	pro_sup_l	pro_sup_r	glut_med1_l/activation	glut_med2_l/activation	glut_med3_l/activation	glut_min1_l/activation	glut_min2_l/activation	glut_min3_l/activation	semimem_l/activation	semiten_l/activation	bifemlh_l/activation	bifemsh_l/activation	sar_l/activation	add_long_l/activation	add_brev_l/activation	add_mag1_l/activation	add_mag2_l/activation	add_mag3_l/activation	tfl_l/activation	pect_l/activation	grac_l/activation	glut_max1_l/activation	glut_max2_l/activation	glut_max3_l/activation	iliacus_l/activation	psoas_l/activation	quad_fem_l/activation	gem_l/activation	peri_l/activation	rect_fem_l/activation	vas_med_l/activation	vas_int_l/activation	vas_lat_l/activation	med_gas_l/activation	lat_gas_l/activation	soleus_l/activation	tib_post_l/activation	flex_dig_l/activation	flex_hal_l/activation	tib_ant_l/activation	per_brev_l/activation	per_long_l/activation	per_tert_l/activation	ext_dig_l/activation	ext_hal_l/activation	ercspn_l/activation	intobl_l/activation	extobl_l/activation	glut_med1_r/activation	glut_med2_r/activation	glut_med3_r/activation	glut_min1_r/activation	glut_min2_r/activation	glut_min3_r/activation	semimem_r/activation	semiten_r/activation	bifemlh_r/activation	bifemsh_r/activation	sar_r/activation	add_long_r/activation	add_brev_r/activation	add_mag1_r/activation	add_mag2_r/activation	add_mag3_r/activation	tfl_r/activation	pect_r/activation	grac_r/activation	glut_max1_r/activation	glut_max2_r/activation	glut_max3_r/activation	iliacus_r/activation	psoas_r/activation	quad_fem_r/activation	gem_r/activation	peri_r/activation	rect_fem_r/activation	vas_med_r/activation	vas_int_r/activation	vas_lat_r/activation	med_gas_r/activation	lat_gas_r/activation	soleus_r/activation	tib_post_r/activation	flex_dig_r/activation	flex_hal_r/activation	tib_ant_r/activation	per_brev_r/activation	per_long_r/activation	per_tert_r/activation	ext_dig_r/activation	ext_hal_r/activation	ercspn_r/activation	intobl_r/activation	extobl_r/activation	
          1.03107467	         -2.92320873	         -1.28874073	          5.50214135	          1.28884334	          0.85784249	         -0.00180329	        -18.28043558	         -1.08374223	          8.19424951	         31.28429039	          2.74168788	         -1.24575653	         -8.68129977	        -19.55153059	         -1.48736200	         -2.90536990	         10.17419245	         -4.24786713	         -1.63468908	          0.01986224	         25.68757459	          0.19804297	         -0.93955074	         -0.44324724	         -1.53584753	          4.07041135	        -13.46534888	         14.47493962	         -7.86959662	        -13.59404675	          7.38902153	         31.82020335	         18.19826472	         86.51662706	         86.51662706	          0.28787148	          0.08172583	          0.05771344	          0.32242773	          0.19103345	          0.09094181	          0.05000045	          0.05000007	          0.05000005	          0.07221465	          0.09428746	          0.09366694	          0.05000026	          0.05000020	          0.05000055	          0.05000028	          0.26757820	          0.05000172	          0.05000021	          0.05000104	          0.05000072	          0.05000054	          0.31497452	          0.52402399	          0.05000007	          0.05000016	          0.05000002	          0.17340766	          0.07441718	          0.08318489	          0.07449666	          0.29864085	          0.38335552	          0.25742763	          0.20854201	          0.19610660	          0.28004621	          0.05000000	          0.07161312	          0.14452447	          0.05000003	          0.05000000	          0.05000003	          0.05000000	          0.05000002	          0.05000001	          0.05000033	          0.05000010	          0.05000085	          0.05000010	          0.05000011	          0.05000031	          0.05859229	          0.05859231	          0.07123456	          0.05000031	          0.05000034	          0.11048879	          0.14788098	          0.17542505	          0.17445432	          0.12984851	          0.05000027	          0.05113158	          0.05859288	          0.05000067	          0.08301911	          0.12755678	          0.05859074	          0.05703728	          0.22833693	          0.05000096	          0.05000008	          0.05000002	          0.13016535	          0.13268852	          0.11122009	          0.05859229	          0.05859229	          0.05859228	          0.05000000	          0.05000339	          0.05000319	          0.37570555	          0.24429672	          0.14623705	          0.39389913	          0.61525916	          0.05000003	          0.05301519	          0.11819294	          0.11424315	
          1.04138542	         -2.91231409	         -1.41360985	          5.77909560	          1.30442621	          0.85675728	         -0.00162526	        -18.01004982	         -1.39944744	          7.95201874	         30.70767898	          3.16263431	         -0.99438136	        -10.72474740	        -19.51255026	         -2.27329333	         -3.31486003	         11.19689162	         -5.01592152	         -1.97777054	          0.01223725	         26.59843672	          0.32319958	         -0.75004837	         -0.19241228	         -1.59072136	          3.86850366	        -13.48771868	         14.83704260	         -8.76878148	        -13.59493618	          7.17966394	         32.67132285	         18.05558027	         86.51662706	         86.51662706	          0.24565648	          0.06974111	          0.05000004	          0.27514525	          0.16301929	          0.07760562	          0.05000327	          0.05000018	          0.05000035	          0.06162471	          0.08046069	          0.18707142	          0.12064537	          0.06866085	          0.05000377	          0.08264408	          0.22833913	          0.07742209	          0.05000051	          0.05000038	          0.05000026	          0.05000028	          0.26878497	          0.44744202	          0.05000005	          0.05000127	          0.05859228	          0.14797824	          0.06350435	          0.15172657	          0.15172660	          0.25484655	          0.32713820	          0.21967706	          0.17796030	          0.16734853	          0.23897875	          0.05000000	          0.06111141	          0.12333064	          0.05000003	          0.05000002	          0.05000003	          0.05000000	          0.06866113	          0.05775642	          0.05000008	          0.05000020	          0.05000155	          0.05000021	          0.05000022	          0.05000010	          0.05000001	          0.05000007	          0.06078835	          0.05000005	          0.05000028	          0.09428623	          0.12619499	          0.30663498	          0.22442494	          0.11918332	          0.05000014	          0.05000054	          0.05000063	          0.05859220	          0.07497568	          0.12581142	          0.05000004	          0.05859163	          0.43665038	          0.08045909	          0.05000122	          0.06866113	          0.24697138	          0.23739525	          0.20419734	          0.05000000	          0.05000001	          0.05000000	          0.05571698	          0.05859156	          0.05000008	          0.52013122	          0.20847174	          0.12479207	          0.45274900	          0.64712562	          0.09134261	          0.05000000	          0.10086049	          0.09748993	
          1.05169616	         -2.89748372	         -1.54643715	          6.03348122	          1.32025905	          0.85560138	         -0.00145682	        -17.65772045	         -1.71095651	          7.69661003	         29.96335953	          3.55478931	         -0.66902032	        -12.91212737	        -19.93979293	         -3.16652327	         -3.44050925	         12.15221481	         -5.83537485	         -2.31566735	         -0.11904133	         27.24085193	          0.40736984	         -0.54068799	          0.07273723	         -1.63647111	          3.60379636	        -13.51606340	         15.15442308	         -9.67759516	        -13.60149683	          7.02412039	         33.50785871	         17.91958029	         86.51662706	         86.51662706	          0.35810013	          0.05951391	          0.05000004	          0.23479728	          0.13911328	          0.06622512	          0.05000052	          0.05000008	          0.05000007	          0.05258774	          0.06866156	          0.17369079	          0.25920849	          0.05859239	          0.05001007	          0.07052489	          0.19485450	          0.08038185	          0.05000050	          0.05000331	          0.05000284	          0.05000272	          0.22936891	          0.42072190	          0.05000024	          0.05000018	          0.05000002	          0.12627792	          0.09901790	          0.12947662	          0.12947664	          0.21747448	          0.27916490	          0.18746243	          0.15186325	          0.14280766	          0.20393364	          0.11839642	          0.13270887	          0.15212055	          0.05000006	          0.15315481	          0.05000305	          0.06811234	          0.05859229	          0.05859229	          0.26971761	          0.25121333	          0.35246570	          0.05000009	          0.05000006	          0.27818485	          0.08395845	          0.05000007	          0.08725036	          0.05000001	          0.05000014	          0.08046022	          0.21089337	          0.26166847	          0.19151568	          0.14720360	          0.05000008	          0.06865922	          0.09868774	          0.05000004	          0.06398089	          0.13030034	          0.05491234	          0.05000018	          0.37261763	          0.06866019	          0.15380466	          0.05859229	          0.22064202	          0.22656064	          0.19400466	          0.05859230	          0.05859231	          0.05859230	          0.06765670	          0.05000007	          0.05000090	          0.46154911	          0.17790033	          0.10649189	          0.38635550	          0.59656851	          0.07794764	          0.05000000	          0.09428698	          0.08319348	
          1.06200691	         -2.88112950	         -1.68014055	          6.25935761	          1.33614050	          0.85444243	         -0.00128179	        -17.19926569	         -2.00677316	          7.43682285	         29.06686306	          3.92601994	         -0.33608095	        -15.26759967	        -20.31130490	         -4.10208806	         -3.38495965	         13.02078334	         -6.68424470	         -2.60010423	         -0.21626464	         27.35402291	          0.51089549	         -0.33018949	          0.34156674	         -1.67308529	          3.30932870	        -13.54983842	         15.43804449	        -10.54593743	        -13.61050120	          6.94678158	         34.30803379	         17.75552674	         86.51662706	         86.51662706	          0.30558642	          0.05078647	          0.05000000	          0.20273299	          0.11871297	          0.05651353	          0.05000110	          0.05000005	          0.05000004	          0.05000003	          0.05859277	          0.21400246	          0.22446764	          0.05000032	          0.05000024	          0.06018367	          0.16801786	          0.06866335	          0.05000005	          0.05000013	          0.05000008	          0.05000005	          0.19573303	          0.37131642	          0.05000000	          0.05000004	          0.05000001	          0.10775986	          0.08449754	          0.11048955	          0.11048957	          0.18558285	          0.23822666	          0.15997193	          0.12959321	          0.12186561	          0.17402774	          0.19277959	          0.13190176	          0.12981280	          0.31119287	          0.24424285	          0.12165806	          0.10390330	          0.05000000	          0.05000001	          0.37451799	          0.41218609	          0.46052384	          0.21890440	          0.27470193	          0.23739375	          0.07164643	          0.10758903	          0.08028114	          0.06866115	          0.05000018	          0.06866111	          0.17996684	          0.22329609	          0.20849185	          0.17213549	          0.05000005	          0.05859076	          0.09574488	          0.25781292	          0.19621971	          0.16570076	          0.05000001	          0.05000001	          0.31797499	          0.05859168	          0.13125005	          0.05000001	          0.28205875	          0.29526645	          0.25190755	          0.05000001	          0.05000004	          0.05000001	          0.13260097	          0.05000237	          0.05000022	          0.57783961	          0.15181207	          0.09087535	          0.33315515	          0.59904363	          0.34466105	          0.06192653	          0.08046023	          0.07099354	
